<?xml version="1.0" encoding="utf-8"?>
<!-- Uploaded to: SVG Repo, www.svgrepo.com, Generator: SVG Repo Mixer Tools -->
<svg width="800px" height="800px" viewBox="0 0 1024 1024" class="icon"  version="1.1" xmlns="http://www.w3.org/2000/svg"><path d="M392 372.856c-4.4 0-8 3.6-8 8v218.1c0 4.4 3.6 8 8 8h240c4.4 0 8-3.6 8-8v-218.1c0-4.4-3.6-8-8-8H392z m0-16h240c13.3 0 24 10.7 24 24v218.1c0 13.3-10.7 24-24 24H392c-13.3 0-24-10.7-24-24v-218.1c0-13.3 10.7-24 24-24z" fill="" /><path d="M412.4 387.356h199.1c6.6 0 12 5.4 12 12v181c0 6.6-5.4 12-12 12H412.4c-6.6 0-12-5.4-12-12v-181c0-6.6 5.4-12 12-12z" fill="#FFC200" /><path d="M445.3 355.6h133.3c-4.9-13.4-8.9-23.9-12.1-31.3-1.8-4.1-3.3-7.3-4.4-9.3H461.9c-1.2 2-2.6 5.2-4.4 9.3-3.2 7.4-7.3 17.9-12.2 31.3z m-18.9 5.3C444 311.4 449.3 299 458.4 299h107.3c9 0 14.4 12.4 31.9 61.9l3.8 10.7H422.6l3.8-10.7z" fill="" /><path d="M463.6 244.6h96.7c8.8 0 16 7.2 16 16v54.2H447.6v-54.2c0-8.8 7.2-16 16-16z" fill="#FF684C" /><path d="M463.6 298.9h96.7v-38.2H463.6v38.2z m0-54.3h96.7c8.8 0 16 7.2 16 16v54.2H447.6v-54.2c0-8.8 7.2-16 16-16z" fill="" /><path d="M512 156.6l-40.2 87.9h80.4L512 156.6z m57.4 86.8c2.8 6 0.1 13.1-5.9 15.9-1.6 0.7-3.3 1.1-5 1.1H465.6c-6.6 0-12-5.4-12-12 0-1.7 0.4-3.4 1.1-5l42.8-93.5c3.7-8 13.2-11.6 21.2-7.9 3.5 1.6 6.3 4.4 7.9 7.9l42.8 93.5z" fill="" /><path d="M515.6 196.2l23 54.9c0.4 1-0.1 2.2-1.1 2.6-0.2 0.1-0.5 0.2-0.8 0.2h-49.6c-1.1 0-2-0.9-2-2 0-0.3 0.1-0.5 0.2-0.8l23-54.9c0.9-2 3.2-3 5.2-2.1 0.9 0.4 1.7 1.2 2.1 2.1zM504 111.4c0-4.4 3.6-8 8-8s8 3.6 8 8V151c0 4.4-3.6 8-8 8s-8-3.6-8-8V111.4z" fill="" /><path d="M513 491m-75 0a75 75 0 1 0 150 0 75 75 0 1 0-150 0Z" fill="#FFFFFF" /><path d="M576.4 432.9c2.9 3.3 2.6 8.4-0.7 11.3s-8.4 2.6-11.3-0.7c-13.2-14.9-32.1-23.6-52.4-23.6-38.7 0-70 31.4-70 70s31.4 70 70 70 70-31.4 70-70c0-4.4 3.6-8 8-8s8 3.6 8 8c0 47.5-38.5 86-86 86s-86-38.5-86-86 38.5-86 86-86c24.9 0 48.2 10.7 64.4 29z" fill="" /><path d="M541.2 455.4c3-3.2 8.1-3.4 11.3-0.4s3.4 8.1 0.4 11.3l-36.1 38.5c-3.1 3.3-8.2 3.4-11.4 0.3L483 483.4c-3.2-3.1-3.2-8.1-0.1-11.3 3.1-3.2 8.1-3.2 11.3-0.1l16.4 16 30.6-32.6zM402.613 643.532c0-4.4 3.6-8 8-8s8 3.6 8 8v269.2c0 4.4-3.6 8-8 8s-8-3.6-8-8v-269.2zM605.413 643.532c0-4.4 3.6-8 8-8s8 3.6 8 8v269.2c0 4.4-3.6 8-8 8s-8-3.6-8-8v-269.2z" fill="" /><path d="M434 899.1V651.3c0-6.5 3.1-11.7 6.8-11.7h142.4c3.8 0 6.8 5.2 6.8 11.7V899" fill="#E0E7EA" /><path d="M445.5 682.5c0-4.4 3.6-8 8-8s8 3.6 8 8v150.2c0 4.4-3.6 8-8 8s-8-3.6-8-8V682.5zM504 659.1c0-4.4 3.6-8 8-8s8 3.6 8 8v209.1c0 4.4-3.6 8-8 8s-8-3.6-8-8V659.1zM560.6 682.5c0-4.4 3.6-8 8-8s8 3.6 8 8v107.3c0 4.4-3.6 8-8 8s-8-3.6-8-8V682.5zM560.6 817.1c0-4.4 3.6-8 8-8s8 3.6 8 8V837c0 4.4-3.6 8-8 8s-8-3.6-8-8v-19.9z" fill="" /></svg>