<?xml version="1.0" encoding="utf-8"?>
<!-- Uploaded to: SVG Repo, www.svgrepo.com, Generator: SVG Repo Mixer Tools -->
<svg width="800px" height="800px" viewBox="0 0 1024 1024" class="icon"  version="1.1" xmlns="http://www.w3.org/2000/svg"><path d="M331.3 851.4h84.8v28.2h-84.8zM614.6 851.4h84.8v28.2h-84.8z" fill="#FFC200" /><path d="M429.5 555.7h162.8v52.8H429.5z" fill="#FF684C" /><path d="M502.9 232.8h18.5c7.2 61.7 12.5 107.9 16.1 138.6 3.5 30.7 9.7 78.9 18.4 144.6h-95.8c10.3-59.2 17.9-104.5 22.6-135.8 4.8-31.3 11.5-80.5 20.2-147.4z" fill="#E0E7EA" /><path d="M389.3 704.9h243.2l15.6 52.8H375.9z" fill="#FF684C" /><path d="M479.285 218.877c0.6-4.4 4.7-7.4 9.1-6.7s7.4 4.7 6.7 9.1c-32.4 219.6-58 363.2-77 431.4-1.2 4.3-5.6 6.7-9.9 5.6s-6.7-5.6-5.6-9.9c18.9-67.3 44.4-210.6 76.7-429.5z m-86.9 463.2c1.4-4.2 5.9-6.5 10.1-5.1s6.5 5.9 5.1 10.1c-22 66.6-48 131.1-78 193.5-1.9 4-6.7 5.7-10.7 3.7s-5.7-6.7-3.7-10.7c29.7-61.7 55.4-125.6 77.2-191.5zM544.685 219.177c-0.5-4.4-4.5-7.5-8.9-7s-7.5 4.5-7 8.9c16.4 141.4 29 234.2 37.6 278.7 0.8 4.3 5 7.2 9.4 6.3s7.2-5 6.3-9.4c-8.5-44-21-136.6-37.4-277.5z m45.1 313.9c-1-4.3-5.3-7-9.6-6s-7 5.3-6 9.6c28.1 121 68.2 235.6 120.2 343.9 1.9 4 6.7 5.7 10.7 3.7 4-1.9 5.7-6.7 3.7-10.7-51.5-107.1-91.2-220.7-119-340.5z" fill="" /><path d="M222 895.1c-4.4 0-8-3.6-8-8s3.6-8 8-8h580c4.4 0 8 3.6 8 8s-3.6 8-8 8H222zM411.6 542.6c-4.4 0-8-3.6-8-8s3.6-8 8-8h200.8c4.4 0 8 3.6 8 8s-3.6 8-8 8H411.6zM429.5 596.2c-4.4 0-8-3.6-8-8s3.6-8 8-8h84.8c4.4 0 8 3.6 8 8s-3.6 8-8 8h-84.8zM382.6 743.4c-4.4 0-8-3.6-8-8s3.6-8 8-8h75.8c4.4 0 8 3.6 8 8s-3.6 8-8 8h-75.8zM362.5 796.9c-4.4 0-8-3.6-8-8s3.6-8 8-8h42.4c4.4 0 8 3.6 8 8s-3.6 8-8 8h-42.4zM344.7 850.5c-4.4 0-8-3.6-8-8s3.6-8 8-8h69.2c4.4 0 8 3.6 8 8s-3.6 8-8 8h-69.2zM612.4 850.5c-4.4 0-8-3.6-8-8s3.6-8 8-8h69.2c4.4 0 8 3.6 8 8s-3.6 8-8 8h-69.2zM554.4 596.2c-4.4 0-8-3.6-8-8s3.6-8 8-8h37.9c4.4 0 8 3.6 8 8s-3.6 8-8 8h-37.9zM509.8 261.5c-4.4 0-8-3.6-8-8s3.6-8 8-8h26.8c4.4 0 8 3.6 8 8s-3.6 8-8 8h-26.8zM503.1 743.4c-4.4 0-8-3.6-8-8s3.6-8 8-8h129.4c4.4 0 8 3.6 8 8s-3.6 8-8 8H503.1z" fill="" /><path d="M624 880h-16c0-53-43-96-96-96s-96 43-96 96h-16c0-61.9 50.1-112 112-112s112 50.1 112 112zM355.8 692.1c-4.4 0-8-3.6-8-8s3.6-8 8-8h312.3c4.4 0 8 3.6 8 8s-3.6 8-8 8H355.8zM475.6 177.7h72.8c3.3 0 6 2.7 6 6v32.6c0 3.3-2.7 6-6 6h-72.8c-3.3 0-6-2.7-6-6v-32.6c0-3.3 2.7-6 6-6z" fill="" /><path d="M504.1 142c0-4.4 3.6-8 8-8s8 3.6 8 8v35.3c0 4.4-3.6 8-8 8s-8-3.6-8-8V142zM474.6 358.3c-4.4 0-8-3.6-8-8s3.6-8 8-8H549c6.9 0 10.6 8.1 6 13.3l-80.5 91.6h84.3c4.4 0 8 3.6 8 8s-3.6 8-8 8h-102c-6.9 0-10.6-8.1-6-13.3l80.5-91.6h-56.7zM466.4 588.7l15.6 3.4-20.2 91.4-15.6-3.4zM562.1 586l-15.4 4.3 26.2 92.5 15.4-4.3zM598.2 738.2l15-5.7 40.1 104.8-14.9 5.7z" fill="" /></svg>