<?xml version="1.0" encoding="utf-8"?>
<!-- Uploaded to: SVG Repo, www.svgrepo.com, Generator: SVG Repo Mixer Tools -->
<svg width="800px" height="800px" viewBox="0 0 1024 1024" class="icon"  version="1.1" xmlns="http://www.w3.org/2000/svg"><path d="M474 432h50v158h-50zM474 804h50v100h-50z" fill="#C4CDD1" /><path d="M512.2 812.8c-63.3 0-114.6-51.3-114.6-114.6s51.3-114.6 114.6-114.6 114.6 51.3 114.6 114.6-51.3 114.6-114.6 114.6z m0-16c54.5 0 98.6-44.1 98.6-98.6 0-54.5-44.1-98.6-98.6-98.6s-98.6 44.1-98.6 98.6c0 54.4 44.1 98.6 98.6 98.6z" fill="" /><path d="M512.7 348.7m-60.7 0a60.7 60.7 0 1 0 121.4 0 60.7 60.7 0 1 0-121.4 0Z" fill="#FFC200" /><path d="M512.7 697.8m-82 0a82 82 0 1 0 164 0 82 82 0 1 0-164 0Z" fill="#FF684C" /><path d="M407.8 709.8c-4.4 0-8-3.6-8-8s3.6-8 8-8h133.7c4.4 0 8 3.6 8 8s-3.6 8-8 8H407.8z m165.3 0c-4.4 0-8-3.6-8-8s3.6-8 8-8h4.9c4.4 0 8 3.6 8 8s-3.6 8-8 8h-4.9zM428.1 358.6c-4.4 0-8-3.6-8-8s3.6-8 8-8h99.1c4.4 0 8 3.6 8 8s-3.6 8-8 8H428.1zM476 474.6c-4.4 0-8-3.6-8-8s3.6-8 8-8h42c4.4 0 8 3.6 8 8s-3.6 8-8 8h-42zM476 518.6c-4.4 0-8-3.6-8-8s3.6-8 8-8h42c4.4 0 8 3.6 8 8s-3.6 8-8 8h-42zM476 562.6c-4.4 0-8-3.6-8-8s3.6-8 8-8h42c4.4 0 8 3.6 8 8s-3.6 8-8 8h-42zM476 848.6c-4.4 0-8-3.6-8-8s3.6-8 8-8h42c4.4 0 8 3.6 8 8s-3.6 8-8 8h-42zM476 890.6c-4.4 0-8-3.6-8-8s3.6-8 8-8h42c4.4 0 8 3.6 8 8s-3.6 8-8 8h-42z" fill="" /><path d="M465.089 433.222c0-4.4 3.6-8 8-8s8 3.6 8 8v158.5c0 4.4-3.6 8-8 8s-8-3.6-8-8v-158.5zM465.089 827.122c0-4.4 3.6-8 8-8s8 3.6 8 8v74.9c0 4.4-3.6 8-8 8s-8-3.6-8-8v-74.9zM538.989 433.222c0-4.4 3.6-8 8-8s8 3.6 8 8v130.8c0 4.4-3.6 8-8 8s-8-3.6-8-8v-130.8zM538.989 800.522c0-4.4 3.6-8 8-8s8 3.6 8 8v101.5c0 4.4-3.6 8-8 8s-8-3.6-8-8v-101.5z" fill="" /><path d="M561.3 268.2c3.8 2.3 4.9 7.3 2.6 11-2.3 3.8-7.3 4.9-11 2.6-12.1-7.5-26.1-11.6-40.8-11.6-42.8 0-77.5 34.7-77.5 77.5s34.7 77.5 77.5 77.5 77.5-34.7 77.5-77.5c0-18.5-6.5-36-18.2-49.9-2.8-3.4-2.4-8.4 1-11.3 3.4-2.8 8.4-2.4 11.3 1 14.1 16.7 21.9 37.8 21.9 60.2 0 51.6-41.9 93.5-93.5 93.5s-93.5-41.9-93.5-93.5 41.9-93.5 93.5-93.5c17.7 0 34.6 4.9 49.2 14z" fill="" /><path d="M503.2 122c0-4.4 3.6-8 8-8s8 3.6 8 8v138.7c0 4.4-3.6 8-8 8s-8-3.6-8-8V122z" fill="" /><path d="M432.2 777.756c2.1-3.9 6.9-5.4 10.8-3.3s5.4 6.9 3.3 10.8l-63.2 119c-2.1 3.9-6.9 5.4-10.8 3.3-3.9-2.1-5.4-6.9-3.3-10.8l63.2-119zM590 777.756c-2.1-3.9-6.9-5.4-10.8-3.3-3.9 2.1-5.4 6.9-3.3 10.8l63.3 118.9c2.1 3.9 6.9 5.4 10.8 3.3 3.9-2.1 5.4-6.9 3.3-10.8l-63.3-118.9z" fill="" /><path d="M510 206m-26 0a26 26 0 1 0 52 0 26 26 0 1 0-52 0Z" fill="" /><path d="M312 914c-4.4 0-8-3.6-8-8s3.6-8 8-8h400c4.4 0 8 3.6 8 8s-3.6 8-8 8H312z" fill="" /></svg>